<svg xmlns="http://www.w3.org/2000/svg" xmlns:xlink="http://www.w3.org/1999/xlink" viewBox="0,0,256,256" width="100px" height="100px" fill-rule="nonzero"><g transform="translate(-25.6,-25.6) scale(1.2,1.2)"><g fill="none" fill-rule="nonzero" stroke="none" stroke-width="1" stroke-linecap="butt" stroke-linejoin="miter" stroke-miterlimit="10" stroke-dasharray="" stroke-dashoffset="0" font-family="none" font-weight="none" font-size="none" text-anchor="none" style="mix-blend-mode: normal"><g transform="scale(2.56,2.56)"><path d="M29.434,25.293l20.566,15.364l20.566,-15.364v22.707l-20.566,15l-20.566,-15z" fill="#f16e7c"></path><path d="M70.566,47.554l17.344,-12.705v-4.808c0,-5.002 -4.055,-9.056 -9.056,-9.056h-2.046l-6.242,4.308c0,0 0,22.261 0,22.261z" fill="#ead032"></path><path d="M29.434,47.554l-17.345,-12.705v-4.808c0,-5.002 4.055,-9.056 9.056,-9.056h2.046l6.242,4.308l0.001,22.261z" fill="#e85654"></path><path d="M70,48l18.362,-13.638v38.926c0,3.155 -2.557,5.712 -5.712,5.712h-12.65z" fill="#8cc78c"></path><path d="M30,48l-18.362,-13.638v38.926c0,3.155 2.557,5.712 5.712,5.712h12.65z" fill="#40a6dd"></path><path d="M78.99,20c-2.186,0 -4.265,0.695 -6.012,2.011l-22.978,17.317l-22.979,-17.317c-1.747,-1.316 -3.826,-2.011 -6.021,-2.011c-5.514,0 -10,4.486 -10,10v44c0,3.309 2.691,6 6,6h13c0.553,0 1,-0.447 1,-1v-28.908l18.4,13.708c0.18,0.13 0.39,0.2 0.6,0.2c0.21,0 0.41,-0.06 0.59,-0.19l18.41,-13.296v28.486c0,0.553 0.447,1 1,1h13c3.309,0 6,-2.691 6,-6v-44c0,-5.514 -4.486,-10 -10.01,-10zM74.182,23.608c1.397,-1.051 3.06,-1.608 4.818,-1.608c4.411,0 8,3.589 8,8v4.799l-16,11.925v-0.124v-20.594zM21.01,22c1.748,0 3.411,0.557 4.809,1.608l3.181,2.398v20.594v0.124l-16,-11.925v-4.799c0,-4.411 3.589,-8 8.01,-8zM29,78h-12c-2.206,0 -4,-1.794 -4,-4v-37.953l16,11.924v0.823v0.206zM50.01,61.76l-20.01,-14.438v-20.562l19.398,14.619c0.017,0.013 0.037,0.015 0.054,0.026c0.059,0.039 0.122,0.064 0.187,0.089c0.057,0.022 0.111,0.047 0.17,0.059c0.066,0.013 0.13,0.011 0.197,0.01c0.061,0 0.12,0.002 0.18,-0.009c0.062,-0.012 0.12,-0.038 0.18,-0.062c0.063,-0.025 0.124,-0.049 0.181,-0.087c0.017,-0.011 0.037,-0.013 0.054,-0.026l19.399,-14.619v20.562zM83,78h-12v-28.93v-0.174v-0.396v-0.528l16,-11.924v37.952c0,2.206 -1.794,4 -4,4z" fill="#1f212b"></path><path d="M16.5,61c0.276,0 0.5,-0.224 0.5,-0.5v-2c0,-0.276 -0.224,-0.5 -0.5,-0.5c-0.276,0 -0.5,0.224 -0.5,0.5v2c0,0.276 0.224,0.5 0.5,0.5z" fill="#1f212b"></path><path d="M16.5,52c0.276,0 0.5,-0.224 0.5,-0.5v-7c0,-0.276 -0.224,-0.5 -0.5,-0.5c-0.276,0 -0.5,0.224 -0.5,0.5v7c0,0.276 0.224,0.5 0.5,0.5z" fill="#1f212b"></path><path d="M24.5,74h-7c-0.275,0 -0.5,-0.225 -0.5,-0.5v-10c0,-0.276 -0.224,-0.5 -0.5,-0.5c-0.276,0 -0.5,0.224 -0.5,0.5v10c0,0.827 0.673,1.5 1.5,1.5h7c0.276,0 0.5,-0.224 0.5,-0.5c0,-0.276 -0.224,-0.5 -0.5,-0.5z" fill="#1f212b"></path><path d="M42.801,40.16c-0.22,-0.164 -0.532,-0.123 -0.7,0.099c-0.166,0.221 -0.122,0.534 0.099,0.7l2.047,1.542c0.09,0.067 0.195,0.101 0.301,0.101c0.151,0 0.301,-0.068 0.399,-0.199c0.166,-0.221 0.122,-0.534 -0.099,-0.7z" fill="#1f212b"></path><path d="M46.444,42.905c-0.219,-0.164 -0.533,-0.123 -0.7,0.099c-0.166,0.221 -0.122,0.534 0.099,0.7l2.914,2.195c0.09,0.068 0.195,0.101 0.301,0.101c0.151,0 0.301,-0.068 0.399,-0.199c0.166,-0.221 0.122,-0.534 -0.099,-0.7z" fill="#1f212b"></path><path d="M55.306,41.587l-3.337,2.514c-0.221,0.166 -0.265,0.479 -0.099,0.7c0.099,0.131 0.248,0.199 0.4,0.199c0.105,0 0.211,-0.033 0.301,-0.101l3.337,-2.514c0.221,-0.166 0.265,-0.479 0.099,-0.7c-0.168,-0.221 -0.483,-0.262 -0.701,-0.098z" fill="#1f212b"></path><path d="M58.682,39.044l-1.778,1.339c-0.221,0.166 -0.265,0.479 -0.099,0.7c0.099,0.131 0.248,0.199 0.399,0.199c0.105,0 0.211,-0.033 0.301,-0.101l1.778,-1.339c0.221,-0.166 0.265,-0.479 0.099,-0.7c-0.167,-0.222 -0.482,-0.262 -0.7,-0.098z" fill="#1f212b"></path><path d="M66.899,33.479c-0.167,-0.222 -0.481,-0.263 -0.7,-0.099l-5.919,4.46c-0.221,0.166 -0.265,0.479 -0.099,0.7c0.099,0.131 0.248,0.199 0.399,0.199c0.105,0 0.211,-0.033 0.301,-0.101l5.919,-4.459c0.221,-0.165 0.265,-0.479 0.099,-0.7z" fill="#1f212b"></path><path d="M16.5,56c0.276,0 0.5,-0.224 0.5,-0.5v-1c0,-0.276 -0.224,-0.5 -0.5,-0.5c-0.276,0 -0.5,0.224 -0.5,0.5v1c0,0.276 0.224,0.5 0.5,0.5z" fill="#1f212b"></path></g></g></g></svg>