<svg xmlns="http://www.w3.org/2000/svg" xmlns:xlink="http://www.w3.org/1999/xlink" viewBox="0,0,256,256" width="128px" height="128px" fill-rule="nonzero"><g transform="translate(-12.8,-12.8) scale(1.1,1.1)"><g fill="none" fill-rule="nonzero" stroke="none" stroke-width="1" stroke-linecap="butt" stroke-linejoin="miter" stroke-miterlimit="10" stroke-dasharray="" stroke-dashoffset="0" font-family="none" font-weight="none" font-size="none" text-anchor="none" style="mix-blend-mode: normal"><g transform="scale(4,4)"><rect x="-57" y="-57" transform="rotate(180)" width="50" height="50" rx="6" ry="6" fill="#ed7899"></rect><rect x="7" y="7" width="50" height="50" rx="6" ry="6" fill="#3a69ed"></rect><path d="M57,51v-31.66c-3.66475,-4.81766 -8.10939,-8.98852 -13.15,-12.34h-30.85c-3.31371,0 -6,2.68629 -6,6v38c0,3.31371 2.68629,6 6,6h38c3.31371,0 6,-2.68629 6,-6z" fill="#8f34bf"></path><path d="M57,51v-22.51c-5.25931,-9.58741 -13.56334,-17.149 -23.6,-21.49h-20.4c-3.31371,0 -6,2.68629 -6,6v38c0,3.31371 2.68629,6 6,6h38c3.31371,0 6,-2.68629 6,-6z" fill="#bb52ce"></path><path d="M57,51v-8.33c-4.39049,-20.23456 -22.29459,-34.67027 -43,-34.67c-1.5533,0.0021 -3.10543,0.08555 -4.65,0.25c-1.47802,1.13285 -2.34624,2.88777 -2.35,4.75v38c0,3.31371 2.68629,6 6,6h38c3.31371,0 6,-2.68629 6,-6z" fill="#e0678f"></path><path d="M14,14c-2.34836,0.00087 -4.69163,0.21846 -7,0.65v36.35c0,3.31371 2.68629,6 6,6h38c0.22316,0.01248 0.44684,0.01248 0.67,0c0.21903,-1.65768 0.32926,-3.32792 0.33,-5c0,-20.98682 -17.01318,-38 -38,-38z" fill="#ff9800"></path><path d="M14,20c-2.35489,0.00229 -4.70237,0.26386 -7,0.78v30.22c0,3.31371 2.68629,6 6,6h32.61c0.25967,-1.65401 0.39007,-3.32573 0.39,-5c0,-17.67311 -14.32689,-32 -32,-32z" fill="#f4b998"></path><path d="M14,26c-2.36798,0.01301 -4.72309,0.34945 -7,1v24c0,3.31371 2.68629,6 6,6h26.51c1.49441,-7.62588 -0.50055,-15.52044 -5.43835,-21.5209c-4.9378,-6.00046 -12.30072,-9.4777 -20.07165,-9.4791z" fill="#f6d397"></path><path d="M14,32c-2.39127,0.00284 -4.76247,0.43643 -7,1.28v17.72c0,3.31371 2.68629,6 6,6h20.34c1.5751,-5.98785 0.27783,-12.36766 -3.51066,-17.26487c-3.78848,-4.89721 -9.63783,-7.75554 -15.82934,-7.73513z" fill="#f9e3ae"></path><path d="M14,38c-2.45932,0.00057 -4.87459,0.6527 -7,1.89v11.11c0,3.31371 2.68629,6 6,6h14.06c1.64454,-4.30101 1.06895,-9.13569 -1.5394,-12.93038c-2.60835,-3.79469 -6.91591,-6.06413 -11.5206,-6.06962z" fill="#faefde"></path><path d="M32,19c-7.1797,0 -13,5.8203 -13,13c0,7.1797 5.8203,13 13,13c7.1797,0 13,-5.8203 13,-13c0,-7.1797 -5.8203,-13 -13,-13z" fill="#f9e3ae"></path><path d="M32,23c-4.97056,0 -9,4.02944 -9,9c0,4.97056 4.02944,9 9,9c4.97056,0 9,-4.02944 9,-9c0,-4.97056 -4.02944,-9 -9,-9z" fill="#bbdef9"></path><path d="M32,27c-2.76142,0 -5,2.23858 -5,5c0,2.76142 2.23858,5 5,5c2.76142,0 5,-2.23858 5,-5c0,-2.76142 -2.23858,-5 -5,-5z" fill="#d2edff"></path><path d="M30,27c-1.65685,0 -3,1.34315 -3,3c0,1.65685 1.34315,3 3,3c1.65685,0 3,-1.34315 3,-3c0,-1.65685 -1.34315,-3 -3,-3zM35.5,34c-0.82843,0 -1.5,0.67157 -1.5,1.5c0,0.82843 0.67157,1.5 1.5,1.5c0.82843,0 1.5,-0.67157 1.5,-1.5c0,-0.82843 -0.67157,-1.5 -1.5,-1.5z" fill="#f3f3f3"></path><path d="M48,14c-1.10457,0 -2,0.89543 -2,2c0,1.10457 0.89543,2 2,2c1.10457,0 2,-0.89543 2,-2c0,-1.10457 -0.89543,-2 -2,-2z" fill="#85cbf8"></path><path d="M32,46c7.73199,0 14,-6.26801 14,-14c0,-7.73199 -6.26801,-14 -14,-14c-7.73199,0 -14,6.26801 -14,14c0,7.73199 6.26801,14 14,14zM32,20c6.62742,0 12,5.37258 12,12c0,6.62742 -5.37258,12 -12,12c-6.62742,0 -12,-5.37258 -12,-12c0,-6.62742 5.37258,-12 12,-12z" fill="#8d6c9f"></path><path d="M32,42c5.52285,0 10,-4.47715 10,-10c0,-5.52285 -4.47715,-10 -10,-10c-5.52285,0 -10,4.47715 -10,10c0,5.52285 4.47715,10 10,10zM32,24c4.41828,0 8,3.58172 8,8c0,4.41828 -3.58172,8 -8,8c-4.41828,0 -8,-3.58172 -8,-8c0,-4.41828 3.58172,-8 8,-8z" fill="#8d6c9f"></path><path d="M48,13c-1.65685,0 -3,1.34315 -3,3c0,1.65685 1.34315,3 3,3c1.65685,0 3,-1.34315 3,-3c0,-1.65685 -1.34315,-3 -3,-3zM48,17.47c-0.81186,0 -1.47,-0.65814 -1.47,-1.47c0,-0.81186 0.65814,-1.47 1.47,-1.47c0.81186,0 1.47,0.65814 1.47,1.47c0,0.81186 -0.65814,1.47 -1.47,1.47z" fill="#f9e3ae"></path><path d="M51,6h-38c-3.86599,0 -7,3.13401 -7,7v38c0,3.86599 3.13401,7 7,7h38c3.86599,0 7,-3.13401 7,-7v-38c0,-3.86599 -3.13401,-7 -7,-7zM56,51c0,2.76142 -2.23858,5 -5,5h-38c-2.76142,0 -5,-2.23858 -5,-5v-38c0,-2.76142 2.23858,-5 5,-5h38c2.76142,0 5,2.23858 5,5z" fill="#8d6c9f"></path><path d="M17,49c-0.55228,0 -1,0.44772 -1,1v2c0,0.55228 0.44772,1 1,1c0.55228,0 1,-0.44772 1,-1v-2c0,-0.55228 -0.44772,-1 -1,-1zM12,49c-0.55228,0 -1,0.44772 -1,1v2c0,0.55228 0.44772,1 1,1c0.55228,0 1,-0.44772 1,-1v-2c0,-0.55228 -0.44772,-1 -1,-1zM32,49c-0.55228,0 -1,0.44772 -1,1v2c0,0.55228 0.44772,1 1,1c0.55228,0 1,-0.44772 1,-1v-2c0,-0.55228 -0.44772,-1 -1,-1zM37,49c-0.55228,0 -1,0.44772 -1,1v2c0,0.55228 0.44772,1 1,1c0.55228,0 1,-0.44772 1,-1v-2c0,-0.55228 -0.44772,-1 -1,-1zM42,49c-0.55228,0 -1,0.44772 -1,1v2c0,0.55228 0.44772,1 1,1c0.55228,0 1,-0.44772 1,-1v-2c0,-0.55228 -0.44772,-1 -1,-1zM47,49c-0.55228,0 -1,0.44772 -1,1v2c0,0.55228 0.44772,1 1,1c0.55228,0 1,-0.44772 1,-1v-2c0,-0.55228 -0.44772,-1 -1,-1zM52,49c-0.55228,0 -1,0.44772 -1,1v2c0,0.55228 0.44772,1 1,1c0.55228,0 1,-0.44772 1,-1v-2c0,-0.55228 -0.44772,-1 -1,-1zM22,49c-0.55228,0 -1,0.44772 -1,1v2c0,0.55228 0.44772,1 1,1c0.55228,0 1,-0.44772 1,-1v-2c0,-0.55228 -0.44772,-1 -1,-1zM27,49c-0.55228,0 -1,0.44772 -1,1v2c0,0.55228 0.44772,1 1,1c0.55228,0 1,-0.44772 1,-1v-2c0,-0.55228 -0.44772,-1 -1,-1z" fill="#8d6c9f"></path></g></g></g></svg>